<svg xmlns="http://www.w3.org/2000/svg"
    xmlns:xlink="http://www.w3.org/1999/xlink" version="1.1" x="0px" y="0px" viewBox="0 0 100 100" enable-background="new 0 0 100 100" xml:space="preserve">
    <path d="M56.499,94.934L68.866,95c0,0,0.006,0,0.008,0c0.43,0,0.84-0.18,1.131-0.497c0.293-0.319,0.436-0.746,0.397-1.177  l-1.061-11.542c-0.067-0.716,0.154-1.429,0.606-1.955c6.426-7.457,12.367-21.477,7.963-36.45c-0.481-1.632-1.998-2.773-3.691-2.773  c-0.429,0-0.853,0.072-1.262,0.214c-0.276,0.096-0.532,0.225-0.771,0.377c-1.415-3.269-3.595-6.2-6.549-8.761  c-3.695-3.203-5.294-8.055-4.174-12.662l2.398-9.861c0.29-1.193,0.021-2.43-0.737-3.396C62.364,5.553,61.225,5,59.998,5H40.057  c-1.227,0-2.367,0.554-3.125,1.519c-0.759,0.965-1.027,2.203-0.737,3.395l2.416,9.937c1.117,4.591-0.47,9.432-4.141,12.634  c-2.364,2.062-4.949,4.768-6.664,8.708c-0.237-0.149-0.491-0.276-0.764-0.372c-0.408-0.142-0.832-0.214-1.261-0.214  c-1.693,0-3.211,1.14-3.691,2.773c-4.404,14.972,1.537,28.993,7.963,36.449c0.453,0.526,0.674,1.238,0.606,1.959l-1.06,11.538  c-0.039,0.431,0.104,0.858,0.397,1.177C30.286,94.82,30.696,95,31.126,95c0.003,0,0.005,0,0.005,0l12.37-0.066  c0.776-0.004,1.426-0.586,1.516-1.356l1.178-10.061c1.605-3.208,1.443-7.06-0.444-10.125c-0.245-0.398-0.544-0.883-0.857-1.392  c1.677,0.438,3.41,0.67,5.153,0.67c1.707,0,3.406-0.22,5.052-0.643c-0.372,0.598-0.665,1.07-0.847,1.365  c-1.887,3.065-2.049,6.917-0.444,10.125l1.178,10.061C55.073,94.348,55.724,94.93,56.499,94.934z M73.471,44.63  c-0.081-0.4,0.128-0.783,0.495-0.911c0.421-0.146,0.878,0.108,1.001,0.527c3.796,12.905-0.953,26.165-7.344,33.581  c-0.995,1.155-1.482,2.702-1.336,4.242l0.905,9.854l-9.319-0.049l-1.052-8.991c-0.022-0.192-0.081-0.378-0.172-0.548  c-1.236-2.301-1.154-5.111,0.215-7.334c1.428-2.32,9.775-15.624,9.904-15.83c0.314-0.498,1.021-0.66,1.522-0.333  c0.488,0.319,0.615,1.041,0.277,1.578l-4.36,6.924c-0.389,0.618-0.278,1.416,0.25,1.92c0.529,0.504,1.349,0.557,1.948,0.14  c0.169-0.117,0.312-0.268,0.421-0.442c0,0,3.389-5.4,4.337-6.908C74.053,57.457,74.851,51.433,73.471,44.63z M43.351,82.335  c-0.091,0.17-0.15,0.356-0.172,0.548l-1.052,8.991l-9.319,0.049l0.905-9.85c0.146-1.544-0.341-3.091-1.336-4.246  c-6.391-7.416-11.14-20.676-7.344-33.58c0.099-0.337,0.407-0.571,0.748-0.571c0.084,0,0.17,0.014,0.252,0.043  c0.369,0.128,0.578,0.511,0.496,0.911c-1.38,6.804-0.582,12.828,2.308,17.42c0.948,1.508,4.337,6.908,4.337,6.908  c0.106,0.169,0.266,0.332,0.428,0.448c0.597,0.425,1.411,0.37,1.945-0.132c0.533-0.503,0.636-1.313,0.246-1.934l-4.36-6.924  c-0.338-0.537-0.211-1.259,0.278-1.578c0.5-0.327,1.208-0.165,1.522,0.334l6.893,10.948c0.001,0.001,0.007,0.009,0.007,0.011  c0.089,0.141,1.493,2.416,3.004,4.87C44.506,77.224,44.588,80.034,43.351,82.335z M50.046,69.602c-2.707,0-5.389-0.646-7.788-1.857  l-6.428-10.209c-0.766-1.218-2.083-1.946-3.524-1.946c-0.807,0-1.592,0.234-2.271,0.677c-0.118,0.077-0.231,0.159-0.338,0.246  c-0.832-2.849-0.982-6.131-0.437-9.718c0.824-4.7,3.121-8.415,7.227-11.998c4.537-3.958,6.493-9.963,5.105-15.671l-2.416-9.938  c-0.091-0.372,0.066-0.644,0.168-0.774c0.102-0.129,0.33-0.347,0.713-0.347h19.941c0.383,0,0.611,0.217,0.712,0.346  c0.102,0.129,0.259,0.402,0.168,0.775l-2.398,9.861c-1.393,5.729,0.578,11.747,5.146,15.706c4.092,3.546,6.514,7.837,7.221,12.896  c0.399,3.251,0.22,6.242-0.545,8.861c-0.107-0.087-0.22-0.169-0.338-0.246c-0.679-0.443-1.464-0.677-2.271-0.677  c-1.44,0-2.758,0.728-3.524,1.946c-0.001,0.001-0.001,0.001-0.001,0.001c-0.055,0.087-3.555,5.666-6.425,10.253  C55.369,68.972,52.718,69.602,50.046,69.602z M61.138,47.459c0-2.445-1.349-4.661-3.521-5.783l-0.001,0  c-2.173-1.123-4.765-0.94-6.771,0.482l-0.882,0.632l-0.856-0.608c-1.106-0.784-2.403-1.199-3.751-1.199  c-1.03,0-2.062,0.251-2.983,0.727c-2.166,1.119-3.511,3.329-3.511,5.768c0,2.1,1.022,4.077,2.732,5.29l8.37,5.943l8.432-5.937  C60.113,51.552,61.138,49.566,61.138,47.459z M56.623,50.268l-6.652,4.684l-6.601-4.687c-0.901-0.639-1.439-1.681-1.439-2.787  c0-1.286,0.709-2.452,1.851-3.041c0.488-0.252,1.032-0.385,1.575-0.385c0.709,0,1.392,0.219,1.975,0.632l2.64,1.876l2.655-1.904  c1.059-0.75,2.431-0.848,3.582-0.254c1.148,0.594,1.861,1.765,1.861,3.057C58.07,48.574,57.527,49.626,56.623,50.268z"/>
</svg>